# xmcd CD database file
#
# Track frame offsets:
#	150
#	30412
#	70840
#	95810
#	120805
#	154532
#	193810
#
# Disc length: 3396 seconds
#
# Revision: 0
# Processed by: cddbd v1.4PL0 Copyright (c) Steve Scherf et al.
# Submitted via: CDex 1.50Beta7
#
DISCID=500d4207
DTITLE=Herbie Mann - Great Ideas Of Western Mann
DYEAR=1957
DGENRE=Jazz
TTITLE0=The Theme
TTITLE1=Lady Bird
TTITLE2=Get Out Of Town
TTITLE3=Is It True What They Say About Dixie?
TTITLE4=A Handful Of Stars
TTITLE5=A Stella Performance
TTITLE6=Blues For Tomorrow
EXTD=YEAR: 1957
EXTT0=
EXTT1=
EXTT2=
EXTT3=
EXTT4=
EXTT5=
EXTT6=
PLAYORDER=
